<svg width="22" height="22" viewBox="0 0 22 22" fill="none" xmlns="http://www.w3.org/2000/svg">
<path d="M17.0637 21.8236H4.81894C3.63412 21.8236 2.49782 21.3502 1.66003 20.5076C0.822227 19.6648 0.351562 18.5218 0.351562 17.3302V5.01396C0.351562 3.82223 0.822227 2.6793 1.66003 1.83661C2.49782 0.993931 3.63412 0.520508 4.81894 0.520508H17.0637C18.2484 0.520508 19.3848 0.993931 20.2225 1.83661C21.0604 2.6793 21.531 3.82223 21.531 5.01396V17.3302C21.531 18.5218 21.0604 19.6648 20.2225 20.5076C19.3848 21.3502 18.2484 21.8236 17.0637 21.8236ZM4.81894 2.15251C4.06444 2.15251 3.34084 2.45399 2.80733 2.99061C2.27382 3.52724 1.9741 4.25506 1.9741 5.01396V17.3302C1.9741 18.089 2.27382 18.8169 2.80733 19.3535C3.34084 19.8901 4.06444 20.1916 4.81894 20.1916H17.0637C17.8181 20.1916 18.5418 19.8901 19.0753 19.3535C19.6088 18.8169 19.9085 18.089 19.9085 17.3302V5.01396C19.9085 4.25506 19.6088 3.52724 19.0753 2.99061C18.5418 2.45399 17.8181 2.15251 17.0637 2.15251H4.81894Z" fill="#8F0005"/>
<path d="M15.0088 16.1982C14.9021 16.1993 14.7963 16.1788 14.6978 16.1376C14.5992 16.0965 14.51 16.0357 14.4355 15.9589L6.16055 7.63566C6.08084 7.56095 6.01691 7.47086 5.97257 7.37077C5.92824 7.27068 5.90439 7.16262 5.90247 7.05306C5.90055 6.9435 5.92058 6.83466 5.96139 6.73306C6.00219 6.63145 6.06292 6.53915 6.13996 6.46166C6.21699 6.38418 6.30875 6.3231 6.40977 6.28205C6.51079 6.24101 6.61899 6.22086 6.72792 6.22278C6.83684 6.22472 6.94428 6.2487 7.04379 6.29331C7.14331 6.3379 7.23287 6.40221 7.30714 6.48238L15.5821 14.8056C15.7339 14.9586 15.8193 15.166 15.8193 15.3822C15.8193 15.5985 15.7339 15.8059 15.5821 15.9589C15.5072 16.0351 15.4179 16.0956 15.3194 16.1368C15.221 16.1779 15.1153 16.1988 15.0088 16.1982Z" fill="#8F0005"/>
<path d="M6.81903 16.1117C6.71217 16.1141 6.60599 16.0941 6.50727 16.0529C6.40856 16.0116 6.31948 15.9502 6.24574 15.8724C6.1692 15.7974 6.10838 15.7077 6.06684 15.6086C6.0253 15.5096 6.00391 15.4032 6.00391 15.2957C6.00391 15.1882 6.0253 15.0818 6.06684 14.9828C6.10838 14.8838 6.1692 14.7941 6.24574 14.7191L14.5207 6.39587C14.6727 6.24306 14.8789 6.15723 15.094 6.15723C15.3089 6.15723 15.5152 6.24306 15.6673 6.39587C15.8173 6.55207 15.9011 6.76076 15.9011 6.97795C15.9011 7.19514 15.8173 7.40383 15.6673 7.56003L7.39233 15.8724C7.31742 15.9486 7.22813 16.0091 7.12969 16.0503C7.03124 16.0913 6.92562 16.1123 6.81903 16.1117Z" fill="#8F0005"/>
</svg>
