<svg width="24" height="20" viewBox="0 0 24 20" fill="none" xmlns="http://www.w3.org/2000/svg">
<path d="M23.938 3.26291C23.8298 2.71795 23.5882 2.21924 23.2507 1.80726C23.1796 1.71749 23.1052 1.6371 23.0247 1.55671C22.4268 0.955867 21.5876 0.581055 20.6709 0.581055H3.32911C2.41238 0.581055 1.57622 0.955867 0.975516 1.55671C0.895125 1.6371 0.820781 1.71749 0.749438 1.80726C0.411797 2.2192 0.170156 2.71795 0.0649687 3.26291C0.02175 3.47324 0 3.6906 0 3.91035V16.09C0 16.5573 0.0990937 17.0064 0.275813 17.412C0.439734 17.7992 0.681422 18.1496 0.975469 18.4433C1.05 18.5177 1.12402 18.586 1.20478 18.654C1.78069 19.1309 2.52408 19.419 3.32911 19.419H20.6709C21.4762 19.419 22.2228 19.1309 22.7954 18.651C22.8759 18.586 22.9503 18.5177 23.0247 18.4433C23.3186 18.1496 23.5602 17.7992 23.7275 17.412V17.409C23.9042 17.0034 24 16.5573 24 16.0901V3.91035C24 3.6906 23.9786 3.47324 23.938 3.26291ZM2.18011 2.76116C2.47753 2.46407 2.87695 2.28421 3.32911 2.28421H20.6709C21.123 2.28421 21.526 2.46407 21.8199 2.76116C21.8725 2.81409 21.922 2.87305 21.9658 2.93165L12.8764 10.8533C12.6257 11.073 12.316 11.1815 12 11.1815C11.6872 11.1815 11.3777 11.073 11.1237 10.8533L2.03775 2.92827C2.07797 2.86968 2.12752 2.81409 2.18011 2.76116ZM1.70316 16.09V4.69073L8.28084 10.4289L1.70648 16.161C1.70316 16.1393 1.70316 16.1148 1.70316 16.09ZM20.6709 17.7155H3.32911C3.03469 17.7155 2.7592 17.6381 2.52408 17.5021L9.46055 11.4572L10.1081 12.0205C10.65 12.4914 11.3282 12.7299 12 12.7299C12.6753 12.7299 13.3534 12.4914 13.8953 12.0205L14.5425 11.4572L21.4762 17.5021C21.2408 17.6381 20.9653 17.7155 20.6709 17.7155ZM22.2968 16.09C22.2968 16.1148 22.2968 16.1393 22.2937 16.161L15.7193 10.4323L22.2968 4.69377V16.09Z" fill="white"/>
</svg>
