<svg width="399" height="463" viewBox="0 0 399 463" fill="none" xmlns="http://www.w3.org/2000/svg">
<path d="M199.22 463C309.246 463 398.44 412.331 398.44 349.827C398.44 287.323 309.246 236.654 199.22 236.654C89.1939 236.654 0 287.323 0 349.827C0 412.331 89.1939 463 199.22 463Z" fill="#F5F5F5"/>
<path d="M282.123 421.185L133.413 335.319C132.105 334.566 131.019 333.481 130.263 332.173C129.508 330.866 129.11 329.383 129.11 327.873C129.11 326.363 129.508 324.88 130.263 323.573C131.019 322.266 132.105 321.181 133.413 320.427L148.083 311.176C150.615 309.718 153.486 308.95 156.409 308.95C159.331 308.95 162.202 309.718 164.734 311.176L313.465 397.052C314.773 397.806 315.859 398.891 316.615 400.198C317.37 401.505 317.768 402.988 317.768 404.498C317.768 406.008 317.37 407.491 316.615 408.798C315.859 410.105 314.773 411.19 313.465 411.944L298.795 421.185C296.261 422.651 293.386 423.423 290.459 423.423C287.532 423.423 284.657 422.651 282.123 421.185Z" fill="#E0E0E0"/>
<path d="M56.0101 342.902C73.8331 342.902 88.2816 334.605 88.2816 324.37C88.2816 314.135 73.8331 305.838 56.0101 305.838C38.187 305.838 23.7385 314.135 23.7385 324.37C23.7385 334.605 38.187 342.902 56.0101 342.902Z" fill="#E6E6E6"/>
<path d="M334.857 347.148L349.012 355.286C349.012 355.286 341.783 332.569 345.635 309.669C347.091 301.015 350.215 296.718 351.307 294.403C352.399 292.088 360.861 277.782 353.329 271.231C345.797 264.679 328.276 277.853 329.226 313.107C329.658 324.646 331.55 336.084 334.857 347.148Z" fill="#0D2F92"/>
<path opacity="0.5" d="M334.857 347.148L349.012 355.286C349.012 355.286 341.783 332.569 345.635 309.669C347.091 301.015 350.215 296.718 351.307 294.403C352.399 292.088 360.861 277.782 353.329 271.231C345.797 264.679 328.276 277.853 329.226 313.107C329.658 324.646 331.55 336.084 334.857 347.148Z" fill="black"/>
<path d="M341.439 351.434C341.336 351.437 341.235 351.407 341.15 351.349C341.065 351.291 341 351.208 340.964 351.111C340.913 350.959 335.505 336.178 335.676 312.419C335.848 288.661 348.334 275.76 348.456 275.639C348.503 275.591 348.558 275.554 348.62 275.528C348.682 275.502 348.748 275.489 348.814 275.489C348.881 275.489 348.947 275.502 349.009 275.528C349.07 275.554 349.126 275.591 349.173 275.639C349.221 275.686 349.258 275.742 349.284 275.803C349.31 275.865 349.323 275.931 349.323 275.998C349.323 276.064 349.31 276.131 349.284 276.192C349.258 276.254 349.221 276.31 349.173 276.357C349.052 276.478 336.859 288.994 336.687 312.43C336.516 335.865 341.854 350.626 341.914 350.767C341.96 350.893 341.953 351.032 341.897 351.153C341.84 351.275 341.737 351.369 341.611 351.414C341.555 351.431 341.497 351.438 341.439 351.434Z" fill="white"/>
<path d="M340.762 350.625L360.113 361.746C362.129 362.938 364.52 363.327 366.81 362.834C369.1 362.341 371.12 361.003 372.467 359.087C373.748 357.095 374.288 354.715 373.994 352.364C373.064 342.315 368.696 340 374.044 335.521C379.393 331.042 380.788 330.729 380.485 326.422C380.181 322.115 377.239 320.234 375.844 318.536C374.449 316.837 370.587 313.278 373.215 308.021C375.844 302.764 379.433 297.679 373.994 295.353C370.749 293.958 365.34 295.818 361.781 299.68C358.222 303.542 355.29 306.323 351.883 307.253C348.476 308.183 341.379 308.335 341.682 314.209C341.985 320.083 343.542 322.095 342.147 324.713C339.518 329.606 328.084 332.387 340.762 350.625Z" fill="#0D2F92"/>
<path d="M350.326 356.61C350.2 356.606 350.079 356.557 349.987 356.472C349.894 356.386 349.835 356.271 349.82 356.145C349.82 355.802 346.848 321.104 370.708 298.012C370.806 297.931 370.932 297.89 371.059 297.897C371.187 297.905 371.306 297.96 371.395 298.052C371.483 298.144 371.533 298.266 371.535 298.394C371.537 298.522 371.491 298.645 371.406 298.74C347.889 321.498 350.801 355.711 350.831 356.054C350.843 356.187 350.801 356.319 350.716 356.421C350.631 356.523 350.509 356.587 350.376 356.6L350.326 356.61Z" fill="white"/>
<path d="M354.158 326.745C354.03 326.746 353.908 326.698 353.814 326.612C353.72 326.526 353.662 326.407 353.652 326.28C353.441 323.591 352.683 320.974 351.426 318.587C350.17 316.2 348.44 314.095 346.343 312.399C346.288 312.361 346.241 312.312 346.206 312.255C346.17 312.199 346.146 312.136 346.134 312.07C346.123 312.005 346.125 311.937 346.14 311.872C346.155 311.807 346.182 311.746 346.221 311.691C346.259 311.637 346.307 311.591 346.362 311.555C346.418 311.519 346.48 311.495 346.545 311.484C346.61 311.473 346.676 311.474 346.74 311.489C346.805 311.504 346.865 311.531 346.919 311.57C349.154 313.342 350.996 315.56 352.329 318.081C353.663 320.603 354.457 323.374 354.663 326.219C354.675 326.355 354.632 326.489 354.545 326.593C354.458 326.697 354.333 326.763 354.198 326.776L354.158 326.745Z" fill="white"/>
<path d="M352.51 332.7C352.388 332.701 352.269 332.658 352.176 332.579C352.076 332.489 352.014 332.364 352.005 332.23C351.995 332.096 352.039 331.964 352.126 331.861C352.368 331.578 358.343 324.986 372.346 326.735C372.478 326.753 372.599 326.822 372.68 326.929C372.762 327.035 372.798 327.169 372.781 327.301C372.763 327.435 372.694 327.556 372.588 327.639C372.482 327.722 372.348 327.761 372.214 327.746C358.768 326.058 352.934 332.468 352.874 332.528C352.828 332.58 352.772 332.622 352.709 332.651C352.647 332.681 352.579 332.697 352.51 332.7Z" fill="white"/>
<path d="M277.594 410.922L146.809 335.41C137.579 330.082 130.097 315.786 130.097 303.482V23.4313C130.097 11.1272 137.579 5.47567 146.809 10.8037L277.594 86.3163C286.824 91.6443 294.306 105.94 294.306 118.244V398.295C294.306 410.589 286.824 416.25 277.594 410.922Z" fill="#455A64"/>
<path d="M292.658 77.5108L161.863 1.99823C157.92 -0.276551 154.301 -0.539416 151.44 0.855782C151.089 1.0312 150.751 1.2305 150.428 1.45228L135.769 9.97512C138.721 8.20585 142.583 8.33728 146.819 10.7839L277.604 86.2965C286.834 91.6245 294.316 105.92 294.316 118.224V398.275C294.316 404.786 292.223 409.396 288.887 411.58L303.354 403.158C307.045 401.197 309.42 396.394 309.42 389.509V109.459C309.42 97.1346 301.888 82.8388 292.658 77.5108Z" fill="#37474F"/>
<path d="M294.306 118.224V398.275C294.306 404.786 292.213 409.396 288.877 411.58L303.354 403.158C307.045 401.197 309.421 396.395 309.421 389.51V109.459L294.356 118.204L294.306 118.224Z" fill="#263238"/>
<path d="M309.37 131.186L294.306 139.88V146.674L309.37 137.969V131.186Z" fill="#37474F"/>
<path d="M302.768 176.368C301.423 177.147 300.332 176.318 300.332 174.528V159.919C300.345 159.006 300.573 158.108 300.996 157.299C301.419 156.49 302.026 155.791 302.768 155.258C304.113 154.48 305.205 155.258 305.205 157.098V171.707C305.191 172.621 304.963 173.518 304.54 174.327C304.117 175.137 303.51 175.836 302.768 176.368Z" fill="#37474F"/>
<path d="M300.321 174.568V159.918C300.335 159.005 300.563 158.108 300.986 157.298C301.409 156.489 302.016 155.79 302.758 155.257C302.98 155.102 303.238 155.008 303.508 154.983C303.777 154.958 304.048 155.004 304.295 155.116L302.465 154.176C302.214 154.055 301.937 154.003 301.66 154.024C301.383 154.045 301.117 154.14 300.888 154.297C300.145 154.829 299.537 155.528 299.112 156.337C298.687 157.147 298.457 158.044 298.441 158.958V173.557C298.403 173.925 298.459 174.298 298.604 174.639C298.749 174.98 298.978 175.279 299.27 175.508L301.181 176.519C300.877 176.3 300.637 176.003 300.485 175.66C300.334 175.317 300.278 174.94 300.321 174.568Z" fill="#455A64"/>
<path d="M302.768 211.722C301.423 212.501 300.332 211.722 300.332 209.882V195.273C300.346 194.36 300.574 193.463 300.997 192.654C301.42 191.845 302.027 191.145 302.768 190.612C304.113 189.834 305.205 190.612 305.205 192.463V207.062C305.193 207.975 304.966 208.873 304.542 209.683C304.119 210.492 303.511 211.191 302.768 211.722Z" fill="#37474F"/>
<path d="M300.321 209.882V195.273C300.336 194.36 300.564 193.463 300.987 192.654C301.41 191.844 302.016 191.145 302.758 190.612C302.981 190.46 303.239 190.367 303.508 190.342C303.777 190.318 304.048 190.362 304.295 190.471L302.465 189.52C302.216 189.395 301.937 189.34 301.659 189.361C301.381 189.382 301.114 189.479 300.888 189.642C300.143 190.173 299.534 190.871 299.109 191.681C298.684 192.49 298.455 193.388 298.441 194.303V208.942C298.402 209.311 298.458 209.684 298.603 210.025C298.748 210.366 298.977 210.665 299.27 210.893L301.181 211.904C300.864 211.68 300.616 211.372 300.464 211.015C300.313 210.658 300.263 210.266 300.321 209.882Z" fill="#455A64"/>
<path d="M273.024 94.172L144.504 19.9434C143.968 19.6348 143.36 19.4719 142.741 19.4707C142.122 19.4696 141.514 19.6302 140.977 19.9368C140.439 20.2434 139.991 20.6852 139.677 21.2184C139.363 21.7516 139.194 22.3576 139.186 22.9764V303.482C139.186 312.844 145.829 324.339 153.937 329.02L279.303 401.439C279.897 401.781 280.571 401.961 281.257 401.96C281.943 401.96 282.617 401.779 283.211 401.436C283.805 401.093 284.298 400.6 284.641 400.006C284.985 399.412 285.166 398.738 285.166 398.052V115.231C285.217 107.507 279.737 98.034 273.024 94.172Z" fill="#0D2F92"/>
<path opacity="0.9" d="M273.024 94.172L144.504 19.9434C143.968 19.6348 143.36 19.4719 142.741 19.4707C142.122 19.4696 141.514 19.6302 140.977 19.9368C140.439 20.2434 139.991 20.6852 139.677 21.2184C139.363 21.7516 139.194 22.3576 139.186 22.9764V303.482C139.186 312.844 145.829 324.339 153.937 329.02L279.303 401.439C279.897 401.781 280.571 401.961 281.257 401.96C281.943 401.96 282.617 401.779 283.211 401.436C283.805 401.093 284.298 400.6 284.641 400.006C284.985 399.412 285.166 398.738 285.166 398.052V115.231C285.217 107.507 279.737 98.034 273.024 94.172Z" fill="white"/>
<path d="M182.943 39.3252L184.935 47.7065L227.539 72.2741L234.899 68.3514L182.943 39.3252Z" fill="#455A64"/>
<path d="M195.469 47.4225C195.469 48.8177 194.458 49.3738 193.286 48.6863C192.656 48.2683 192.133 47.7085 191.759 47.0518C191.385 46.3951 191.17 45.6599 191.132 44.9051C191.132 43.52 192.143 42.9539 193.316 43.6515C193.945 44.0673 194.468 44.6252 194.842 45.2803C195.216 45.9353 195.431 46.6692 195.469 47.4225Z" fill="#263238"/>
<path d="M224.172 65.1661C223.939 65.1643 223.71 65.1052 223.505 64.9942L201.748 52.8621C201.44 52.6817 201.216 52.3883 201.122 52.0446C201.028 51.701 201.073 51.3342 201.245 51.0228C201.418 50.7113 201.706 50.4798 202.048 50.3776C202.389 50.2755 202.756 50.3108 203.072 50.4761L224.839 62.6083C225.104 62.7553 225.312 62.9862 225.431 63.2645C225.55 63.5428 225.573 63.8529 225.497 64.1458C225.42 64.4387 225.249 64.6979 225.009 64.8826C224.769 65.0673 224.475 65.1671 224.172 65.1661Z" fill="#263238"/>
<path d="M166.14 78.3198C164.815 77.5514 163.855 78.2187 163.855 79.9071C163.855 80.7514 164.063 81.5826 164.462 82.3269C164.861 83.0713 165.437 83.7056 166.14 84.1735C166.516 84.402 166.948 84.5228 167.388 84.5228C167.829 84.5228 168.261 84.402 168.637 84.1735L170.75 87.9952C170.007 88.4053 169.164 88.6008 168.316 88.5597C167.468 88.5187 166.648 88.2427 165.948 87.7626C164.231 86.7124 162.8 85.2552 161.781 83.5199C160.761 81.7847 160.185 79.825 160.104 77.8143C160.104 74.0634 162.621 72.7592 166.089 74.7812C168.048 76.0423 169.652 77.7822 170.75 79.8363L168.637 81.5146C168.116 80.2393 167.251 79.1334 166.14 78.3198Z" fill="#0D2F92"/>
<path d="M182.912 90.9875C182.912 94.7687 180.355 96.0425 176.846 94.0205C175.081 92.9654 173.603 91.4903 172.545 89.7266C171.487 87.9628 170.88 85.9649 170.78 83.9104C170.78 80.1292 173.338 78.8553 176.846 80.8773C178.616 81.9277 180.097 83.4016 181.156 85.1664C182.215 86.9312 182.819 88.9315 182.912 90.9875ZM174.531 86.1649C174.549 87.033 174.773 87.8844 175.184 88.6491C175.595 89.4137 176.182 90.0696 176.897 90.5629C178.151 91.2908 179.162 90.5628 179.162 88.8441C179.158 87.9956 178.951 87.1604 178.556 86.4091C178.162 85.6577 177.593 85.0122 176.897 84.5271C175.623 83.7891 174.531 84.4159 174.531 86.1649Z" fill="#0D2F92"/>
<path d="M186.987 86.974L191.354 96.0731V89.5218L194.66 91.4326V104.181L191.627 102.422L187.28 93.404V99.915L183.954 97.994V85.2148L186.987 86.974Z" fill="#0D2F92"/>
<path d="M205.468 97.6397V100.976L202.314 99.1562V108.579L198.664 106.466V97.0432L195.53 95.2335V91.9072L205.468 97.6397Z" fill="#0D2F92"/>
<path d="M212.586 112.704L208.441 110.308L207.875 111.784L204.134 109.62L208.795 99.5605L212.545 101.724L217.034 117.071L213.142 114.827L212.586 112.704ZM211.686 109.165L210.554 104.808L209.391 107.841L211.686 109.165Z" fill="#0D2F92"/>
<path d="M222.827 111.046C221.503 110.288 220.542 110.945 220.542 112.644C220.544 113.488 220.753 114.318 221.152 115.062C221.55 115.806 222.126 116.441 222.827 116.91C223.206 117.136 223.639 117.256 224.081 117.256C224.522 117.256 224.955 117.136 225.335 116.91L227.448 120.732C226.701 121.137 225.857 121.33 225.009 121.289C224.16 121.248 223.339 120.975 222.635 120.499C220.917 119.448 219.485 117.989 218.466 116.252C217.446 114.515 216.871 112.553 216.792 110.541C216.792 106.79 219.319 105.486 222.777 107.508C224.732 108.775 226.339 110.513 227.448 112.563L225.335 114.231C224.802 112.962 223.935 111.862 222.827 111.046Z" fill="#0D2F92"/>
<path d="M237.416 116.091V119.417L234.262 117.598V127.051L230.612 124.938V115.515L227.478 113.705V110.379L237.416 116.091Z" fill="#0D2F92"/>
<path d="M248.204 131.742C249.103 132.258 249.791 131.853 249.791 130.589V123.239L253.451 125.342V132.692C253.451 136.079 251.429 137.09 248.193 135.24C246.635 134.374 245.325 133.123 244.388 131.606C243.452 130.089 242.92 128.357 242.845 126.576V119.226L246.505 121.339V128.689C246.519 129.297 246.681 129.893 246.977 130.425C247.273 130.957 247.694 131.409 248.204 131.742Z" fill="#0D2F92"/>
<path d="M259.345 131.782C258.931 131.55 258.668 131.539 258.668 131.924C258.668 133.521 264.38 135.826 264.38 140.446C264.38 143.277 262.227 143.287 259.739 141.852C257.553 140.512 255.67 138.732 254.209 136.625L255.564 134.239C256.676 135.96 258.103 137.456 259.77 138.647C260.306 138.96 260.649 138.96 260.649 138.505C260.649 136.847 254.927 134.643 254.927 130.164C254.927 127.617 256.787 127.131 259.659 128.749C261.508 129.868 263.136 131.317 264.461 133.026L263.136 135.472C262.043 134.079 260.767 132.838 259.345 131.782Z" fill="#0D2F92"/>
<path d="M147.749 141.144C151.852 136.106 153.916 129.713 153.537 123.227C153.157 116.742 150.36 110.633 145.698 106.108C141.036 101.583 134.848 98.9695 128.353 98.7832C121.859 98.5968 115.53 100.851 110.617 105.102C105.703 109.352 102.56 115.29 101.809 121.743C101.058 128.197 102.753 134.697 106.56 139.962C110.366 145.228 116.008 148.875 122.372 150.185C128.735 151.495 135.359 150.372 140.935 147.039L153.593 152.538L147.749 141.144Z" fill="#0D2F92"/>
<path opacity="0.4" d="M147.749 141.144C151.852 136.106 153.916 129.713 153.537 123.227C153.157 116.742 150.36 110.633 145.698 106.108C141.036 101.583 134.848 98.9695 128.353 98.7832C121.859 98.5968 115.53 100.851 110.617 105.102C105.703 109.352 102.56 115.29 101.809 121.743C101.058 128.197 102.753 134.697 106.56 139.962C110.366 145.228 116.008 148.875 122.372 150.185C128.735 151.495 135.359 150.372 140.935 147.039L153.593 152.538L147.749 141.144Z" fill="black"/>
<path d="M117.985 123.35C117.985 122.956 117.702 122.733 117.187 122.733C115.991 122.89 114.874 123.417 113.992 124.24L112.556 121.449C114.067 120.312 115.893 119.67 117.783 119.609C120.21 119.609 122.05 120.883 122.05 122.784C122.05 124.139 121.039 125.443 119.744 126.747L117.935 128.537H122.211V131.509H113.021V129.072L117.116 124.836C117.557 124.446 117.861 123.926 117.985 123.35Z" fill="white"/>
<path d="M129.693 119.781L126.902 126.474H128.045V124.22H131.563V126.474H132.898V129.234H131.563V131.509H128.045V129.234H123.04V126.727L126.073 119.781H129.693Z" fill="white"/>
<path d="M143.756 125.676V131.509H139.995V126.758C140.017 126.603 140.005 126.445 139.96 126.295C139.916 126.146 139.84 126.007 139.737 125.889C139.635 125.771 139.508 125.677 139.366 125.612C139.224 125.547 139.069 125.514 138.913 125.514C138.175 125.514 137.71 126.09 137.71 126.98V131.509H133.949V119.114H137.71V123.674C138.004 123.209 138.414 122.828 138.9 122.57C139.385 122.311 139.93 122.183 140.48 122.198C140.931 122.186 141.379 122.27 141.795 122.443C142.212 122.617 142.586 122.876 142.896 123.204C143.205 123.533 143.441 123.922 143.589 124.348C143.738 124.774 143.794 125.226 143.756 125.676Z" fill="white"/>
<path d="M266.392 219.618V345.237C266.394 346.658 266.022 348.054 265.313 349.285C264.604 350.516 263.583 351.539 262.353 352.25C261.123 352.962 259.728 353.336 258.307 353.337C256.886 353.337 255.49 352.964 254.26 352.253L186.603 313.188L174.612 306.272C170.483 303.885 167.053 300.456 164.665 296.327C162.277 292.199 161.015 287.516 161.004 282.746V157.118C161.002 155.697 161.374 154.301 162.083 153.069C162.792 151.838 163.813 150.815 165.043 150.104C166.273 149.393 167.668 149.018 169.089 149.018C170.51 149.017 171.906 149.391 173.136 150.101L252.804 196.092C256.935 198.476 260.365 201.905 262.75 206.035C265.135 210.164 266.391 214.849 266.392 219.618Z" fill="#0D2F92"/>
<path opacity="0.5" d="M266.392 219.618V345.237C266.394 346.658 266.022 348.054 265.313 349.285C264.604 350.516 263.583 351.539 262.353 352.25C261.123 352.962 259.728 353.336 258.307 353.337C256.886 353.337 255.49 352.964 254.26 352.253L186.603 313.188L174.612 306.272C170.483 303.885 167.053 300.456 164.665 296.327C162.277 292.199 161.015 287.516 161.004 282.746V157.118C161.002 155.697 161.374 154.301 162.083 153.069C162.792 151.838 163.813 150.815 165.043 150.104C166.273 149.393 167.668 149.018 169.089 149.018C170.51 149.017 171.906 149.391 173.136 150.101L252.804 196.092C256.935 198.476 260.365 201.905 262.75 206.035C265.135 210.164 266.391 214.849 266.392 219.618Z" fill="white"/>
<path d="M227.417 293.948C227.417 293.948 240.085 314.957 230.936 338.645L186.572 313.188L227.417 293.948Z" fill="#263238"/>
<path d="M247.62 199.557C248.579 191.771 243.044 184.682 235.258 183.723C227.471 182.764 220.382 188.299 219.423 196.085C218.465 203.872 223.999 210.961 231.786 211.92C239.572 212.878 246.661 207.344 247.62 199.557Z" fill="#263238"/>
<path d="M233.595 157.977C233.595 157.977 237.952 150.9 239.287 151.416C240.621 151.931 238.417 158.675 238.417 158.675C238.417 158.675 245.009 160.05 243.786 161.708C242.562 163.366 234.505 162.971 234.505 162.971L233.595 157.977Z" fill="#263238"/>
<path d="M236.627 176.217C233.594 199.005 214.385 199.005 214.385 199.005L174.147 181.292C174.147 181.292 171.114 178.633 170.184 172.526C169.827 170.025 169.827 167.486 170.184 164.984C170.184 164.984 170.184 164.934 170.184 164.913C171.468 155.329 178.636 145.027 194.246 141.862C197.667 141.172 201.149 140.833 204.639 140.851C206.327 140.845 208.015 140.93 209.694 141.104C221.826 142.297 230.329 147.959 234.383 156.765C235.295 158.752 235.973 160.839 236.405 162.982C237.228 167.349 237.303 171.824 236.627 176.217Z" fill="#263238"/>
<path d="M140.025 220.296C140.025 220.296 125.74 219.801 120.24 233.722C120.24 233.722 126.306 237.817 134.262 233.722C142.219 229.628 140.025 220.296 140.025 220.296Z" fill="#0D2F92"/>
<path opacity="0.5" d="M140.025 220.296C140.025 220.296 125.74 219.801 120.24 233.722C120.24 233.722 126.306 237.817 134.262 233.722C142.219 229.628 140.025 220.296 140.025 220.296Z" fill="black"/>
<path d="M139.621 227C139.621 227 135.577 209.428 133.444 209.216C131.31 209.004 130.896 214.574 131.068 217.718L126.013 206.84C125.852 206.502 125.624 206.2 125.343 205.954C125.062 205.707 124.733 205.521 124.377 205.406C124.02 205.292 123.645 205.251 123.272 205.287C122.9 205.323 122.539 205.436 122.211 205.617C117.156 208.397 108.29 216.849 126.983 237.747L139.621 227Z" fill="#FDCC9F"/>
<path d="M191.385 214.847L188.352 214.452C185.295 214.047 182.186 214.463 179.343 215.657C176.5 216.851 174.026 218.78 172.176 221.246L154.129 245.268L139.975 220.296C139.975 220.296 138.276 237.281 120.189 233.722L139.611 266.408C140.84 268.478 142.551 270.219 144.598 271.485C146.644 272.752 148.967 273.504 151.367 273.68C153.767 273.856 156.175 273.449 158.384 272.495C160.594 271.54 162.54 270.066 164.057 268.198L180.678 247.765L191.385 214.847Z" fill="#0D2F92"/>
<path d="M229.904 270.908C225.86 281.16 225.415 283.161 227.882 288.287C229.6 292.073 230.954 296.013 231.926 300.055C231.926 300.055 213.182 321.064 186.502 313.199L174.511 306.283C172.017 304.845 169.771 303.015 167.859 300.864L171.508 273.648C171.692 272.215 171.547 270.759 171.084 269.391L167.252 258.159C165.382 252.673 165.104 246.769 166.449 241.132C167.795 235.494 170.709 230.352 174.855 226.302L187.735 213.715L221.564 218.042L226.619 219.488C229.928 220.445 232.781 222.564 234.653 225.456C236.525 228.348 237.291 231.818 236.81 235.229C235.152 247.159 232.442 264.468 229.904 270.908Z" fill="#0D2F92"/>
<path opacity="0.5" d="M229.904 270.908C225.86 281.16 225.415 283.161 227.882 288.287C229.6 292.073 230.954 296.013 231.926 300.055C231.926 300.055 213.182 321.064 186.502 313.199L174.511 306.283C172.017 304.845 169.771 303.015 167.859 300.864L171.508 273.648C171.692 272.215 171.547 270.759 171.084 269.391L167.252 258.159C165.382 252.673 165.104 246.769 166.449 241.132C167.795 235.494 170.709 230.352 174.855 226.302L187.735 213.715L221.564 218.042L226.619 219.488C229.928 220.445 232.781 222.564 234.653 225.456C236.525 228.348 237.291 231.818 236.81 235.229C235.152 247.159 232.442 264.468 229.904 270.908Z" fill="black"/>
<path d="M209.502 240.284L202.728 234.511C202.011 233.897 201.146 233.481 200.219 233.304C199.291 233.126 198.334 233.194 197.441 233.5L189.252 236.32L188.15 231.73C187.978 231.016 187.663 230.344 187.224 229.755C186.785 229.166 186.232 228.672 185.597 228.303C184.962 227.933 184.259 227.696 183.53 227.606C182.801 227.516 182.061 227.574 181.356 227.777L177.807 228.788L183.812 217.283C185.773 213.536 188.794 210.449 192.497 208.406L194.853 207.112L214.315 208.123C214.315 208.123 221.564 211.156 221.564 217.981L209.502 240.223" fill="#0D2F92"/>
<path d="M214.395 216.748L194.883 231.954V183.536H214.395V216.748Z" fill="#FDCC9F"/>
<path d="M195.186 212.754L189.251 236.361L214.314 216.747L195.186 212.754Z" fill="#FDCC9F"/>
<path d="M194.883 209.246C199.222 207.635 203.188 205.159 206.541 201.968C209.893 198.777 212.562 194.938 214.385 190.684V183.536H194.873L194.883 209.246Z" fill="#703838"/>
<path d="M199.089 147.655C191.688 147.655 175.957 151.78 174.137 171.151C172.317 190.522 174.076 205.526 184.065 206.982C194.054 208.437 217.267 201.188 220.381 176.115C223.494 151.042 206.297 147.655 199.089 147.655Z" fill="#FDCC9F"/>
<path d="M187.442 179.351V190.765L180.749 188.713L187.442 179.351Z" fill="#703838"/>
<path d="M194.883 183.647C196.167 183.647 197.208 182.606 197.208 181.321C197.208 180.037 196.167 178.996 194.883 178.996C193.599 178.996 192.558 180.037 192.558 181.321C192.558 182.606 193.599 183.647 194.883 183.647Z" fill="#263238"/>
<path d="M181.901 179.705C181.899 180.164 181.761 180.613 181.505 180.994C181.248 181.375 180.884 181.671 180.459 181.846C180.034 182.02 179.567 182.065 179.116 181.974C178.666 181.883 178.252 181.661 177.928 181.335C177.604 181.01 177.384 180.595 177.295 180.144C177.206 179.694 177.252 179.227 177.429 178.802C177.605 178.378 177.903 178.015 178.285 177.76C178.667 177.505 179.117 177.369 179.576 177.369C179.882 177.369 180.185 177.43 180.468 177.547C180.751 177.665 181.008 177.837 181.224 178.054C181.44 178.271 181.611 178.528 181.727 178.812C181.844 179.095 181.903 179.398 181.901 179.705Z" fill="#263238"/>
<path d="M176.735 174.851L181.285 172.152C181.285 172.152 179.546 170.342 177.807 171.424C176.068 172.506 176.735 174.851 176.735 174.851Z" fill="#263238"/>
<path d="M184.298 195.395C186.513 195.557 188.718 194.965 190.556 193.717C190.556 193.717 190.991 197.023 188.22 197.65C185.45 198.276 184.298 195.395 184.298 195.395Z" fill="#703838"/>
<path d="M180.324 154.246C180.324 154.246 183.105 180.988 219.471 181.827C219.471 181.827 230.46 155.247 208.744 146.613C187.027 137.979 180.324 154.246 180.324 154.246Z" fill="#263238"/>
<path d="M230.177 177.823L225.709 175.235C224.01 174.224 221.665 174.365 219.066 175.862C213.91 178.834 209.725 186.083 209.725 192.038C209.725 195.02 210.736 197.093 212.475 198.104L216.862 200.632L217.115 200.773L217.267 200.864C218.925 201.673 221.139 201.481 223.575 200.076C228.732 197.042 232.917 189.854 232.917 183.899C232.887 180.886 231.846 178.804 230.177 177.823Z" fill="#0D2F92"/>
<path d="M230.142 193.051C233.788 186.736 233.788 179.91 230.142 177.805C226.496 175.7 220.585 179.113 216.939 185.428C213.292 191.744 213.292 198.57 216.938 200.675C220.584 202.78 226.496 199.367 230.142 193.051Z" fill="#0D2F92"/>
<path opacity="0.5" d="M230.142 193.051C233.788 186.736 233.788 179.91 230.142 177.805C226.496 175.7 220.585 179.113 216.939 185.428C213.292 191.744 213.292 198.57 216.938 200.675C220.584 202.78 226.496 199.367 230.142 193.051Z" fill="black"/>
<path d="M231.967 183.435L228.934 181.666C227.781 180.978 226.174 181.069 224.394 182.09C222.535 183.305 220.989 184.94 219.879 186.863C218.769 188.786 218.127 190.944 218.005 193.161C218.005 195.183 218.722 196.629 219.885 197.296L222.918 199.025C222.972 199.064 223.03 199.098 223.09 199.126L223.191 199.187C223.902 199.456 224.668 199.547 225.423 199.452C226.177 199.357 226.897 199.078 227.518 198.641C229.376 197.427 230.922 195.793 232.032 193.872C233.142 191.951 233.784 189.796 233.908 187.58C233.827 185.528 233.119 184.102 231.967 183.435Z" fill="#0D2F92"/>
<path d="M233.827 187.56C233.704 189.775 233.061 191.93 231.951 193.852C230.841 195.773 229.295 197.406 227.438 198.62C223.899 200.642 221.038 199.004 221.038 194.93C221.158 192.713 221.8 190.555 222.912 188.633C224.024 186.711 225.575 185.079 227.438 183.869C230.966 181.827 233.827 183.475 233.827 187.56Z" fill="#0D2F92"/>
<path opacity="0.3" d="M233.827 187.56C233.704 189.775 233.061 191.93 231.951 193.852C230.841 195.773 229.295 197.406 227.438 198.62C223.899 200.642 221.038 199.004 221.038 194.93C221.158 192.713 221.8 190.555 222.912 188.633C224.024 186.711 225.575 185.079 227.438 183.869C230.966 181.827 233.827 183.475 233.827 187.56Z" fill="black"/>
<path d="M216.296 142.438C213.398 140.199 209.848 138.968 206.186 138.93H205.286C201.578 138.89 197.875 139.229 194.236 139.941C194.903 139.941 195.57 139.941 196.258 139.941H194.236V141.821H196.116C202.597 142.042 208.738 144.774 213.242 149.439C217.745 154.105 220.258 160.339 220.249 166.824V174.78C220.249 175.095 220.315 175.406 220.442 175.693C220.57 175.981 220.757 176.238 220.99 176.449C221.224 176.66 221.499 176.819 221.798 176.916C222.097 177.014 222.413 177.047 222.726 177.015H222.959L224.981 176.388C224.846 176.43 224.707 176.458 224.566 176.469C225.169 176.387 225.721 176.086 226.116 175.624C226.511 175.161 226.723 174.57 226.71 173.962V166.581C226.689 153.226 220.916 146.047 216.296 142.438Z" fill="#0D2F92"/>
<path d="M203.567 206.426C202.733 206.426 201.909 206.246 201.151 205.9L194.832 202.978C194.733 202.943 194.643 202.887 194.567 202.815C194.49 202.743 194.43 202.656 194.389 202.559C194.348 202.463 194.328 202.358 194.329 202.254C194.331 202.149 194.354 202.045 194.397 201.95C194.441 201.854 194.504 201.769 194.582 201.699C194.66 201.629 194.752 201.576 194.852 201.543C194.952 201.511 195.057 201.499 195.162 201.509C195.266 201.52 195.367 201.552 195.459 201.603L201.778 204.525C202.584 204.9 203.486 205.014 204.36 204.85C205.234 204.687 206.035 204.255 206.651 203.615L212.717 197.347C212.859 197.205 213.052 197.125 213.253 197.125C213.454 197.125 213.646 197.205 213.789 197.347C213.928 197.49 214.006 197.682 214.006 197.883C214.006 198.083 213.928 198.275 213.789 198.418L207.723 204.687C207.183 205.241 206.536 205.681 205.822 205.98C205.108 206.279 204.341 206.43 203.567 206.426Z" fill="#0D2F92"/>
<path opacity="0.5" d="M203.567 206.426C202.733 206.426 201.909 206.246 201.151 205.9L194.832 202.978C194.733 202.943 194.643 202.887 194.567 202.815C194.49 202.743 194.43 202.656 194.389 202.559C194.348 202.463 194.328 202.358 194.329 202.254C194.331 202.149 194.354 202.045 194.397 201.95C194.441 201.854 194.504 201.769 194.582 201.699C194.66 201.629 194.752 201.576 194.852 201.543C194.952 201.511 195.057 201.499 195.162 201.509C195.266 201.52 195.367 201.552 195.459 201.603L201.778 204.525C202.584 204.9 203.486 205.014 204.36 204.85C205.234 204.687 206.035 204.255 206.651 203.615L212.717 197.347C212.859 197.205 213.052 197.125 213.253 197.125C213.454 197.125 213.646 197.205 213.789 197.347C213.928 197.49 214.006 197.682 214.006 197.883C214.006 198.083 213.928 198.275 213.789 198.418L207.723 204.687C207.183 205.241 206.536 205.681 205.822 205.98C205.108 206.279 204.341 206.43 203.567 206.426Z" fill="black"/>
<path d="M196.49 200.855C196.49 201.438 196.317 202.009 195.993 202.495C195.669 202.98 195.208 203.358 194.668 203.582C194.129 203.805 193.535 203.864 192.962 203.75C192.39 203.636 191.864 203.355 191.451 202.942C191.038 202.529 190.757 202.003 190.643 201.43C190.529 200.858 190.587 200.264 190.811 199.725C191.034 199.185 191.413 198.724 191.898 198.4C192.384 198.075 192.954 197.902 193.538 197.902C194.321 197.902 195.072 198.213 195.626 198.767C196.179 199.321 196.49 200.072 196.49 200.855Z" fill="#0D2F92"/>
<path opacity="0.5" d="M196.49 200.855C196.49 201.438 196.317 202.009 195.993 202.495C195.669 202.98 195.208 203.358 194.668 203.582C194.129 203.805 193.535 203.864 192.962 203.75C192.39 203.636 191.864 203.355 191.451 202.942C191.038 202.529 190.757 202.003 190.643 201.43C190.529 200.858 190.587 200.264 190.811 199.725C191.034 199.185 191.413 198.724 191.898 198.4C192.384 198.075 192.954 197.902 193.538 197.902C194.321 197.902 195.072 198.213 195.626 198.767C196.179 199.321 196.49 200.072 196.49 200.855Z" fill="black"/>
<path d="M226.689 166.581V173.961C226.702 174.569 226.491 175.161 226.096 175.623C225.7 176.086 225.149 176.387 224.546 176.468C224.213 176.504 223.876 176.469 223.557 176.366C223.239 176.262 222.946 176.093 222.697 175.869C222.448 175.645 222.249 175.371 222.113 175.065C221.977 174.759 221.907 174.427 221.907 174.093V166.581C221.913 162.996 221.193 159.446 219.792 156.147C218.39 152.847 216.335 149.865 213.751 147.38C211.167 144.895 208.107 142.958 204.755 141.687C201.403 140.415 197.828 139.835 194.246 139.981C197.885 139.269 201.588 138.93 205.296 138.97H206.176C209.838 139.008 213.388 140.24 216.286 142.478C220.916 146.047 226.689 153.225 226.689 166.581Z" fill="#0D2F92"/>
<path opacity="0.5" d="M226.689 166.581V173.961C226.702 174.569 226.491 175.161 226.096 175.623C225.7 176.086 225.149 176.387 224.546 176.468C224.213 176.504 223.876 176.469 223.557 176.366C223.239 176.262 222.946 176.093 222.697 175.869C222.448 175.645 222.249 175.371 222.113 175.065C221.977 174.759 221.907 174.427 221.907 174.093V166.581C221.913 162.996 221.193 159.446 219.792 156.147C218.39 152.847 216.335 149.865 213.751 147.38C211.167 144.895 208.107 142.958 204.755 141.687C201.403 140.415 197.828 139.835 194.246 139.981C197.885 139.269 201.588 138.93 205.296 138.97H206.176C209.838 139.008 213.388 140.24 216.286 142.478C220.916 146.047 226.689 153.225 226.689 166.581Z" fill="black"/>
<path d="M215.326 305.667C215.326 305.667 210.432 319.144 227.923 325.21C227.923 325.21 233.635 316.818 227.923 309.953C222.211 303.089 215.326 305.667 215.326 305.667Z" fill="#0D2F92"/>
<path opacity="0.7" d="M215.326 305.667C215.326 305.667 210.432 319.144 227.923 325.21C227.923 325.21 233.635 316.818 227.923 309.953C222.211 303.089 215.326 305.667 215.326 305.667Z" fill="black"/>
<path d="M221.462 306.283C221.462 306.283 204.376 312.541 204.467 314.968C204.558 317.394 211.726 315.736 211.726 315.736L209.108 317.455C206.35 319.254 204.215 321.859 202.991 324.916C202.724 325.59 202.715 326.339 202.965 327.02C203.215 327.7 203.706 328.265 204.346 328.606L210.837 332.044C211.203 332.238 211.605 332.357 212.018 332.394C212.432 332.43 212.848 332.383 213.243 332.256C213.638 332.129 214.003 331.924 214.318 331.653C214.632 331.382 214.889 331.051 215.073 330.679C215.435 329.964 215.935 329.328 216.544 328.807C217.153 328.287 217.859 327.892 218.621 327.646C222.15 326.473 228.732 323.096 231.37 313.856L221.462 306.283Z" fill="#FDCC9F"/>
<path d="M226.588 219.467C226.588 219.467 217.489 224.522 222.322 239.869C227.155 255.216 236.223 279.026 236.223 279.026L215.326 305.666C217.558 305.935 219.709 306.672 221.638 307.829C223.566 308.986 225.229 310.536 226.518 312.379C227.752 314.253 228.523 316.394 228.768 318.624C229.012 320.855 228.723 323.112 227.923 325.209L253.865 291.845C256.265 288.762 257.857 285.129 258.5 281.276C259.143 277.422 258.815 273.47 257.546 269.775L246.424 237.301C245.065 233.334 242.806 229.736 239.824 226.788C236.843 223.839 233.219 221.621 229.237 220.306L226.588 219.467Z" fill="#0D2F92"/>
<path d="M72.9952 128.81L32.7872 105.556C32.3245 105.236 31.7891 105.035 31.2296 104.974C30.67 104.912 30.1038 104.99 29.5823 105.203C29.4724 105.253 29.3674 105.314 29.2689 105.385L20.5236 110.51H20.5843C19.4823 111.137 18.7847 112.593 18.7847 114.676V159.403C18.7847 163.184 21.0797 167.582 23.9206 169.22L64.1286 192.473C64.6388 192.842 65.2461 193.053 65.8751 193.08C66.5042 193.107 67.1273 192.949 67.6671 192.625C67.6398 192.636 67.6155 192.653 67.5964 192.675L76.281 187.62C77.4133 187.014 78.1311 185.538 78.1311 183.425V138.627C78.1311 134.845 75.8766 130.448 72.9952 128.81Z" fill="#0D2F92"/>
<path d="M76.6953 133.046C75.8819 131.316 74.6 129.848 72.995 128.81L32.787 105.556C32.3243 105.236 31.789 105.035 31.2294 104.974C30.6698 104.912 30.1036 104.99 29.5821 105.203C29.4722 105.253 29.3673 105.314 29.2687 105.385L20.5234 110.51C21.0584 110.237 21.6582 110.116 22.2574 110.16C22.8565 110.205 23.4318 110.413 23.9204 110.763L64.1284 134.016C65.788 135.101 67.1033 136.638 67.9197 138.445L76.6953 133.046Z" fill="#0D2F92"/>
<path d="M69.2646 188.54C69.2646 190.562 68.6176 191.968 67.5964 192.584L76.281 187.529C77.4134 186.923 78.1312 185.447 78.1312 183.334V138.627C78.0884 136.681 77.5971 134.771 76.6956 133.046L67.92 138.445C68.7625 140.119 69.2219 141.96 69.2646 143.833V188.54Z" fill="#0D2F92"/>
<path opacity="0.3" d="M76.6953 133.046C75.8819 131.316 74.6 129.848 72.995 128.81L32.787 105.556C32.3243 105.236 31.789 105.035 31.2294 104.974C30.6698 104.912 30.1036 104.99 29.5821 105.203C29.4722 105.253 29.3673 105.314 29.2687 105.385L20.5234 110.51C21.0584 110.237 21.6582 110.116 22.2574 110.16C22.8565 110.205 23.4318 110.413 23.9204 110.763L64.1284 134.016C65.788 135.101 67.1033 136.638 67.9197 138.445L76.6953 133.046Z" fill="black"/>
<path opacity="0.6" d="M69.2646 188.54C69.2646 190.562 68.6176 191.968 67.5964 192.584L76.281 187.529C77.4134 186.923 78.1312 185.447 78.1312 183.334V138.627C78.0884 136.681 77.5971 134.771 76.6956 133.046L67.92 138.445C68.7625 140.119 69.2219 141.96 69.2646 143.833V188.54Z" fill="black"/>
<path d="M57.4762 156.643C57.4762 162.436 55.1812 164.407 51.7437 162.416C50.7955 161.876 49.9663 161.15 49.306 160.281C48.6458 159.412 48.1681 158.419 47.9019 157.361C46.8909 158.604 45.3238 158.685 43.1198 157.411C39.5004 155.318 36.6493 150.334 36.6493 145.491C36.6493 140.649 39.47 138.98 43.1198 141.083C44.9718 142.175 46.4678 143.78 47.4267 145.704V143.793L51.2382 145.997V156.471C51.1815 157.022 51.2768 157.578 51.5138 158.079C51.7509 158.58 52.1206 159.006 52.5829 159.312C53.8669 160.06 54.6554 158.796 54.6554 155.045C54.6554 148.484 50.4496 141.528 44.2319 137.939C38.0142 134.35 33.8185 136.847 33.8185 143.601C33.8999 147.184 34.8874 150.689 36.6888 153.788C38.4902 156.887 41.047 159.479 44.1207 161.324C45.7896 162.352 47.6848 162.956 49.6408 163.083L50.5406 166.571C48.2631 166.387 46.0622 165.663 44.1207 164.458C36.0326 159.777 30.6843 150.354 30.6843 141.821C30.6843 133.288 36.0831 130.195 44.2319 134.906C52.1077 139.445 57.4762 148.534 57.4762 156.643ZM47.4874 151.78C47.507 150.498 47.1942 149.233 46.5794 148.107C45.9645 146.982 45.0687 146.036 43.9791 145.36C41.9571 144.177 40.5114 145.006 40.5114 147.756C40.4854 149.04 40.7908 150.309 41.3983 151.441C42.0057 152.572 42.8946 153.528 43.9791 154.216C46.0012 155.359 47.4874 154.621 47.4874 151.78Z" fill="#0D2F92"/>
<g opacity="0.9">
<path d="M57.4762 156.643C57.4762 162.436 55.1812 164.407 51.7437 162.416C50.7955 161.876 49.9663 161.15 49.306 160.281C48.6458 159.412 48.1681 158.419 47.9019 157.361C46.8909 158.604 45.3238 158.685 43.1198 157.411C39.5004 155.318 36.6493 150.334 36.6493 145.491C36.6493 140.649 39.47 138.98 43.1198 141.083C44.9718 142.175 46.4678 143.78 47.4267 145.704V143.793L51.2382 145.997V156.471C51.1815 157.022 51.2768 157.578 51.5138 158.079C51.7509 158.58 52.1206 159.006 52.5829 159.312C53.8669 160.06 54.6554 158.796 54.6554 155.045C54.6554 148.484 50.4496 141.528 44.2319 137.939C38.0142 134.35 33.8185 136.847 33.8185 143.601C33.8999 147.184 34.8874 150.689 36.6888 153.788C38.4902 156.887 41.047 159.479 44.1207 161.324C45.7896 162.352 47.6848 162.956 49.6408 163.083L50.5406 166.571C48.2631 166.387 46.0622 165.663 44.1207 164.458C36.0326 159.777 30.6843 150.354 30.6843 141.821C30.6843 133.288 36.0831 130.195 44.2319 134.906C52.1077 139.445 57.4762 148.534 57.4762 156.643ZM47.4874 151.78C47.507 150.498 47.1942 149.233 46.5794 148.107C45.9645 146.982 45.0687 146.036 43.9791 145.36C41.9571 144.177 40.5114 145.006 40.5114 147.756C40.4854 149.04 40.7908 150.309 41.3983 151.441C42.0057 152.572 42.8946 153.528 43.9791 154.216C46.0012 155.359 47.4874 154.621 47.4874 151.78Z" fill="white"/>
</g>
<path d="M72.9952 208.457L32.7872 185.204C32.3251 184.881 31.7891 184.681 31.2289 184.621C30.6686 184.561 30.1022 184.643 29.5823 184.86C29.4724 184.911 29.3674 184.972 29.2689 185.042L20.5236 190.168H20.5843C19.4823 190.795 18.7847 192.251 18.7847 194.323V239.03C18.7847 242.821 21.0797 247.209 23.9206 248.847L64.1286 272.1C64.6377 272.472 65.2453 272.684 65.8749 272.711C66.5046 272.738 67.1281 272.579 67.6671 272.252L67.5964 272.313L76.281 267.207C77.4133 266.611 78.1311 265.185 78.1311 263.011V218.264C78.1311 214.483 75.8766 210.095 72.9952 208.457Z" fill="#0D2F92"/>
<path d="M76.6956 212.693C75.8849 210.961 74.6024 209.493 72.9953 208.457L32.7873 185.204C32.3252 184.881 31.7892 184.681 31.2289 184.621C30.6687 184.561 30.1023 184.643 29.5824 184.86C29.4724 184.911 29.3675 184.972 29.2689 185.042L20.5237 190.168C21.0574 189.892 21.657 189.768 22.2563 189.811C22.8557 189.854 23.4316 190.061 23.9207 190.411L64.1287 213.664C65.7909 214.75 67.1066 216.291 67.92 218.102L76.6956 212.693Z" fill="#0D2F92"/>
<path d="M69.2646 268.178C69.2646 270.2 68.6176 271.605 67.5964 272.272L76.281 267.167C77.4134 266.57 78.1312 265.145 78.1312 262.971V218.264C78.0883 216.321 77.597 214.415 76.6956 212.693L67.92 218.092C68.7624 219.763 69.2217 221.6 69.2646 223.471V268.178Z" fill="#0D2F92"/>
<path opacity="0.3" d="M76.6956 212.693C75.8849 210.961 74.6024 209.493 72.9953 208.457L32.7873 185.204C32.3252 184.881 31.7892 184.681 31.2289 184.621C30.6687 184.561 30.1023 184.643 29.5824 184.86C29.4724 184.911 29.3675 184.972 29.2689 185.042L20.5237 190.168C21.0574 189.892 21.657 189.768 22.2563 189.811C22.8557 189.854 23.4316 190.061 23.9207 190.411L64.1287 213.664C65.7909 214.75 67.1066 216.291 67.92 218.102L76.6956 212.693Z" fill="black"/>
<path opacity="0.6" d="M69.2646 268.178C69.2646 270.2 68.6176 271.605 67.5964 272.272L76.281 267.167C77.4134 266.57 78.1312 265.145 78.1312 262.971V218.264C78.0883 216.321 77.597 214.415 76.6956 212.693L67.92 218.092C68.7624 219.763 69.2217 221.6 69.2646 223.471V268.178Z" fill="black"/>
<path d="M39.5306 228.445L29.835 212.693V234.036L39.5306 228.445Z" fill="#0D2F92"/>
<path d="M48.5388 232.984L58.2142 249.737V228.425L48.5388 232.984Z" fill="#0D2F92"/>
<path d="M31.301 211.976L41.2595 228.152C41.3017 228.187 41.339 228.228 41.3707 228.273C41.3795 228.313 41.3795 228.354 41.3707 228.394L44.333 233.207L46.8403 232.024C46.8793 231.982 46.9235 231.944 46.9717 231.913C47.0706 231.855 47.1812 231.821 47.2953 231.812L57.4054 227.07L31.301 211.976Z" fill="#0D2F92"/>
<path d="M47.073 233.671L44.3635 234.945C44.2591 234.994 44.145 235.018 44.0299 235.016C43.8903 235.018 43.7527 234.983 43.6305 234.916C43.5083 234.848 43.4055 234.751 43.3323 234.632L40.37 229.819L30.644 235.441L56.8192 250.545L47.073 233.671Z" fill="#0D2F92"/>
<g opacity="0.9">
<path d="M39.5306 228.445L29.835 212.693V234.036L39.5306 228.445Z" fill="white"/>
<path d="M48.5386 232.984L58.214 249.737V228.425L48.5386 232.984Z" fill="white"/>
<path d="M31.3008 211.976L41.2593 228.152C41.3014 228.187 41.3388 228.228 41.3705 228.273C41.3792 228.313 41.3792 228.354 41.3705 228.394L44.3327 233.207L46.84 232.024C46.8791 231.982 46.9232 231.944 46.9715 231.913C47.0703 231.855 47.1809 231.821 47.295 231.812L57.4051 227.07L31.3008 211.976Z" fill="white"/>
<path d="M47.0728 233.672L44.3632 234.946C44.2589 234.995 44.1448 235.019 44.0296 235.017C43.8901 235.019 43.7525 234.984 43.6302 234.917C43.508 234.849 43.4053 234.752 43.332 234.633L40.3697 229.82L30.6438 235.442L56.8189 250.546L47.0728 233.672Z" fill="white"/>
</g>
<path d="M72.9952 49.2022L32.7872 25.9489C32.3251 25.6264 31.7891 25.4259 31.2289 25.3658C30.6686 25.3057 30.1022 25.388 29.5823 25.6052C29.4724 25.6559 29.3674 25.7169 29.2689 25.7872L20.5236 30.913H20.5843C19.4823 31.5297 18.7847 32.9957 18.7847 35.0683V79.7753C18.7847 83.5564 21.0797 87.9543 23.9206 89.5922L64.1286 112.845C64.6377 113.217 65.2453 113.43 65.8749 113.457C66.5046 113.484 67.1281 113.324 67.6671 112.997L67.5964 113.048L76.281 107.993C77.4133 107.396 78.1311 105.971 78.1311 103.797V58.9787C78.1311 55.1975 75.8766 50.7996 72.9952 49.2022Z" fill="#0D2F92"/>
<path d="M76.6956 53.408C75.8851 51.6734 74.6027 50.2019 72.9953 49.1618L32.7873 25.9489C32.3252 25.6264 31.7892 25.4259 31.2289 25.3658C30.6687 25.3057 30.1023 25.388 29.5824 25.6052C29.4724 25.6559 29.3675 25.7169 29.2689 25.7872L20.5237 30.913C21.0574 30.637 21.657 30.5136 22.2563 30.5564C22.8557 30.5992 23.4316 30.8066 23.9207 31.1556L64.1287 54.4089C65.7909 55.4954 67.1066 57.0357 67.92 58.8473L76.6956 53.408Z" fill="#0D2F92"/>
<path d="M69.2646 108.852C69.2646 110.874 68.6176 112.279 67.5964 112.896L76.281 107.841C77.4134 107.245 78.1312 105.819 78.1312 103.645V58.9789C78.0883 57.0362 77.597 55.1296 76.6956 53.4082L67.92 58.807C68.7624 60.4777 69.2217 62.3151 69.2646 64.1856V108.852Z" fill="#0D2F92"/>
<path opacity="0.3" d="M76.6956 53.408C75.8851 51.6734 74.6027 50.2019 72.9953 49.1618L32.7873 25.9489C32.3252 25.6264 31.7892 25.4259 31.2289 25.3658C30.6687 25.3057 30.1023 25.388 29.5824 25.6052C29.4724 25.6559 29.3675 25.7169 29.2689 25.7872L20.5237 30.913C21.0574 30.637 21.657 30.5136 22.2563 30.5564C22.8557 30.5992 23.4316 30.8066 23.9207 31.1556L64.1287 54.4089C65.7909 55.4954 67.1066 57.0357 67.92 58.8473L76.6956 53.408Z" fill="black"/>
<path opacity="0.6" d="M69.2646 108.852C69.2646 110.874 68.6176 112.279 67.5964 112.896L76.281 107.841C77.4134 107.245 78.1312 105.819 78.1312 103.645V58.9789C78.0883 57.0362 77.597 55.1296 76.6956 53.4082L67.92 58.807C68.7624 60.4777 69.2217 62.3151 69.2646 64.1856V108.852Z" fill="black"/>
<path d="M56.1113 89.6427C54.5644 87.0949 53.0074 84.5876 51.4606 82.0196C51.2152 81.5332 50.8723 81.1026 50.453 80.7547C50.0338 80.4068 49.5474 80.1491 49.0241 79.9976C48.2759 79.8459 47.5278 79.6741 46.7594 79.4516C46.4857 79.3375 46.2556 79.1392 46.1022 78.8855C43.5711 74.5534 41.5588 69.9384 40.1069 65.1357C40.076 65.033 40.0673 64.925 40.0812 64.8187C40.0952 64.7124 40.1315 64.6102 40.1878 64.519C40.663 64.0438 41.1988 63.6091 41.6841 63.1845C42.1694 62.7598 42.4221 61.7791 42.0683 60.5053C41.3201 57.8059 40.6023 55.1065 39.8542 52.4172C39.7094 51.653 39.3659 50.9405 38.8583 50.3513C38.3508 49.7621 37.6969 49.3169 36.9627 49.0606C35.3323 48.6073 33.6014 48.6709 32.0087 49.2426C31.392 49.4751 31.0685 50.0312 31.0583 50.9916C31.3212 52.8418 31.4931 54.6717 31.8469 56.5522C34.3408 70.1133 40.3395 82.5824 49.843 93.9597C50.0911 94.337 50.4244 94.6506 50.816 94.8754C51.2076 95.1002 51.6466 95.2298 52.0975 95.2538C53.6709 95.2164 55.1825 94.6339 56.3741 93.6058C57.2739 92.797 57.1829 91.3614 56.1113 89.6427Z" fill="#0D2F92"/>
<path d="M55.9901 75.8625C55.7786 72.9545 54.9771 70.12 53.6344 67.5318C52.6319 65.5099 51.3562 63.6354 49.8431 61.9611C49.4488 61.5163 49.1152 61.3747 48.913 61.7084C48.7108 62.042 48.913 62.5172 49.2972 62.9519L49.6914 63.4069C52.4859 66.6325 54.247 70.6232 54.7465 74.8616C54.7416 75.1708 54.7721 75.4795 54.8375 75.7817C54.9645 76.1294 55.1684 76.4439 55.434 76.7017C55.6463 76.8533 55.889 76.7017 56.0608 76.7017C56.0002 76.2872 56.0103 76.0749 55.9901 75.8625Z" fill="#0D2F92"/>
<path d="M46.8302 67.5619C48.0998 68.9583 48.8713 70.7359 49.0242 72.617C49.0907 72.903 49.1962 73.1785 49.3376 73.4359C49.9543 73.9414 50.2576 73.7695 50.2576 73.1326C50.0414 70.7207 49.0439 68.4453 47.4166 66.652C47.0325 66.2577 46.719 66.1364 46.5371 66.47C46.4716 66.6605 46.4645 66.8662 46.5168 67.0608C46.569 67.2553 46.6782 67.4298 46.8302 67.5619Z" fill="#0D2F92"/>
<g opacity="0.9">
<path d="M56.1113 89.6427C54.5644 87.0949 53.0074 84.5876 51.4606 82.0196C51.2152 81.5332 50.8723 81.1026 50.453 80.7547C50.0338 80.4068 49.5474 80.1491 49.0241 79.9976C48.2759 79.8459 47.5278 79.6741 46.7594 79.4516C46.4857 79.3375 46.2556 79.1392 46.1022 78.8855C43.5711 74.5534 41.5588 69.9384 40.1069 65.1357C40.076 65.033 40.0673 64.925 40.0812 64.8187C40.0952 64.7124 40.1315 64.6102 40.1878 64.519C40.663 64.0438 41.1988 63.6091 41.6841 63.1845C42.1694 62.7598 42.4221 61.7791 42.0683 60.5053C41.3201 57.8059 40.6023 55.1065 39.8542 52.4172C39.7094 51.653 39.3659 50.9405 38.8583 50.3513C38.3508 49.7621 37.6969 49.3169 36.9627 49.0606C35.3323 48.6073 33.6014 48.6709 32.0087 49.2426C31.392 49.4751 31.0685 50.0312 31.0583 50.9916C31.3212 52.8418 31.4931 54.6717 31.8469 56.5522C34.3408 70.1133 40.3395 82.5824 49.843 93.9597C50.0911 94.337 50.4244 94.6506 50.816 94.8754C51.2076 95.1002 51.6466 95.2298 52.0975 95.2538C53.6709 95.2164 55.1825 94.6339 56.3741 93.6058C57.2739 92.797 57.1829 91.3614 56.1113 89.6427Z" fill="white"/>
<path d="M55.9898 75.8625C55.7783 72.9545 54.9768 70.12 53.6342 67.5318C52.6317 65.5099 51.356 63.6354 49.8429 61.9611C49.4486 61.5163 49.1149 61.3747 48.9127 61.7084C48.7105 62.042 48.9127 62.5172 49.2969 62.9519L49.6912 63.4069C52.4856 66.6325 54.2467 70.6232 54.7463 74.8616C54.7413 75.1708 54.7719 75.4795 54.8373 75.7817C54.9642 76.1294 55.1682 76.4439 55.4338 76.7017C55.6461 76.8533 55.8887 76.7017 56.0606 76.7017C55.9999 76.2872 56.01 76.0749 55.9898 75.8625Z" fill="white"/>
<path d="M46.83 67.5619C48.0996 68.9583 48.8711 70.7359 49.0239 72.617C49.0905 72.903 49.1959 73.1785 49.3373 73.4359C49.954 73.9414 50.2573 73.7695 50.2573 73.1326C50.0412 70.7207 49.0437 68.4453 47.4164 66.652C47.0322 66.2577 46.7188 66.1364 46.5368 66.47C46.4714 66.6605 46.4643 66.8662 46.5165 67.0608C46.5688 67.2553 46.6779 67.4298 46.83 67.5619Z" fill="white"/>
</g>
<path d="M279.292 22.3907L288.766 27.7794V24.4228C288.766 24.1903 288.766 23.9477 288.766 23.7151C288.766 23.4826 288.766 23.2602 288.766 23.0378V22.9164C289.109 18.4781 292.476 16.7695 296.581 19.1454C298.439 20.2883 300.032 21.8154 301.252 23.6241C302.172 17.5581 307.095 15.4147 313.05 18.8421C319.662 22.6637 325.02 31.9852 325.02 39.588V46.7662C325.011 47.3404 325.153 47.907 325.431 48.4092C325.71 48.9114 326.116 49.3315 326.608 49.6274L332.189 52.893C333.393 53.6071 334.391 54.6216 335.086 55.8373C335.781 57.0531 336.148 58.4283 336.152 59.8285C336.152 60.4094 335.999 60.9801 335.708 61.4831C335.418 61.9862 335 62.4037 334.497 62.6938C333.993 62.9839 333.423 63.1363 332.842 63.1355C332.261 63.1348 331.69 62.981 331.188 62.6897L279.434 32.7738C278.061 31.9765 276.921 30.8337 276.126 29.4592C275.331 28.0847 274.91 26.5261 274.905 24.9385C274.904 24.4245 275.039 23.9195 275.295 23.474C275.551 23.0285 275.92 22.6582 276.364 22.4001C276.809 22.1421 277.313 22.0054 277.827 22.0037C278.341 22.0021 278.846 22.1355 279.292 22.3907Z" fill="#E6E6E6"/>
<path d="M351.509 20.9857L358.394 24.9388V22.4719C358.394 22.3 358.394 22.1281 358.394 21.9563C358.394 21.7844 358.394 21.6226 358.394 21.4609V21.4002C358.647 18.1751 361.093 16.9315 364.076 18.6604C365.426 19.4879 366.585 20.5944 367.473 21.9057C368.15 17.5179 371.729 15.9306 376.056 18.4278C380.869 21.2081 384.761 27.9617 384.761 33.5122V38.7391C384.765 39.1488 384.875 39.5506 385.08 39.9051C385.286 40.2595 385.58 40.5545 385.934 40.7611L389.978 43.137C390.858 43.6545 391.587 44.3935 392.093 45.2804C392.598 46.1673 392.862 47.1712 392.859 48.1921C392.859 48.6102 392.749 49.0209 392.541 49.3838C392.334 49.7467 392.035 50.0491 391.675 50.2614C391.314 50.4737 390.905 50.5884 390.487 50.5943C390.069 50.6002 389.657 50.497 389.29 50.295L351.61 28.538C350.612 27.9603 349.782 27.1304 349.206 26.1315C348.629 25.1325 348.325 23.9995 348.324 22.846C348.323 22.4726 348.421 22.1056 348.606 21.7817C348.792 21.4577 349.059 21.1881 349.381 20.9998C349.704 20.8115 350.07 20.7111 350.443 20.7086C350.817 20.7061 351.184 20.8017 351.509 20.9857Z" fill="#E6E6E6"/>
</svg>
