<svg width="66" height="66" viewBox="0 0 66 66" fill="none" xmlns="http://www.w3.org/2000/svg">
<path d="M33 1C15.3269 1 0.999996 15.3269 0.999997 33C0.999999 50.6731 15.3269 65 33 65C50.6731 65 65 50.6731 65 33C65 15.3269 50.6731 1 33 1Z" fill="#003399" stroke="white" stroke-width="2" stroke-linecap="round" stroke-linejoin="round"/>
<path d="M43.8008 46.4023L33.4002 36.0018L22.9996 46.4023" stroke="white" stroke-width="2" stroke-linecap="round" stroke-linejoin="round"/>
<path d="M33.4004 56.8027L33.4004 36.0016" stroke="white" stroke-width="2" stroke-linecap="round" stroke-linejoin="round"/>
<path d="M17.8693 14.3153V12.9091H27.6875V14.3153H23.571V26H21.9858V14.3153H17.8693ZM32.4943 26.2045C31.608 26.2045 30.8303 25.9936 30.1612 25.5717C29.4964 25.1499 28.9766 24.5597 28.6016 23.8011C28.2308 23.0426 28.0455 22.1562 28.0455 21.142C28.0455 20.1193 28.2308 19.2266 28.6016 18.4638C28.9766 17.701 29.4964 17.1087 30.1612 16.6868C30.8303 16.2649 31.608 16.054 32.4943 16.054C33.3807 16.054 34.1563 16.2649 34.821 16.6868C35.4901 17.1087 36.0099 17.701 36.3807 18.4638C36.7557 19.2266 36.9432 20.1193 36.9432 21.142C36.9432 22.1562 36.7557 23.0426 36.3807 23.8011C36.0099 24.5597 35.4901 25.1499 34.821 25.5717C34.1563 25.9936 33.3807 26.2045 32.4943 26.2045ZM32.4943 24.8494C33.1676 24.8494 33.7216 24.6768 34.1562 24.3317C34.5909 23.9865 34.9126 23.5327 35.1214 22.9702C35.3303 22.4077 35.4347 21.7983 35.4347 21.142C35.4347 20.4858 35.3303 19.8743 35.1214 19.3075C34.9126 18.7408 34.5909 18.2827 34.1562 17.9332C33.7216 17.5838 33.1676 17.4091 32.4943 17.4091C31.821 17.4091 31.267 17.5838 30.8324 17.9332C30.3977 18.2827 30.076 18.7408 29.8672 19.3075C29.6584 19.8743 29.554 20.4858 29.554 21.142C29.554 21.7983 29.6584 22.4077 29.8672 22.9702C30.076 23.5327 30.3977 23.9865 30.8324 24.3317C31.267 24.6768 31.821 24.8494 32.4943 24.8494ZM39.2459 29.6818V16.1818H40.7033V17.7415H40.8823C40.9931 17.571 41.1465 17.3537 41.3425 17.0895C41.5428 16.821 41.8283 16.5824 42.199 16.3736C42.574 16.1605 43.0811 16.054 43.7203 16.054C44.5471 16.054 45.2757 16.2607 45.9064 16.674C46.5371 17.0874 47.0293 17.6733 47.383 18.4318C47.7367 19.1903 47.9135 20.0852 47.9135 21.1165C47.9135 22.1562 47.7367 23.0575 47.383 23.8203C47.0293 24.5788 46.5392 25.1669 45.9128 25.5845C45.2864 25.9979 44.5641 26.2045 43.7459 26.2045C43.1152 26.2045 42.6103 26.1001 42.231 25.8913C41.8517 25.6783 41.5598 25.4375 41.3553 25.169C41.1507 24.8963 40.9931 24.6705 40.8823 24.4915H40.7544V29.6818H39.2459ZM40.7289 21.0909C40.7289 21.8324 40.8375 22.4865 41.0549 23.0533C41.2722 23.6158 41.5897 24.0568 42.0073 24.3764C42.4249 24.6918 42.9363 24.8494 43.5414 24.8494C44.1721 24.8494 44.6983 24.6832 45.1202 24.3509C45.5463 24.0142 45.8659 23.5625 46.079 22.9957C46.2963 22.4247 46.405 21.7898 46.405 21.0909C46.405 20.4006 46.2985 19.7784 46.0854 19.2244C45.8766 18.6662 45.5591 18.2251 45.133 17.9013C44.7111 17.5732 44.1806 17.4091 43.5414 17.4091C42.9277 17.4091 42.4121 17.5646 41.9945 17.8757C41.5769 18.1825 41.2615 18.6129 41.0485 19.1669C40.8354 19.7166 40.7289 20.358 40.7289 21.0909Z" fill="white"/>
</svg>
