<svg width="16" height="16" viewBox="0 0 16 16" fill="none" xmlns="http://www.w3.org/2000/svg">
<path d="M13.6 2.32005C12.8669 1.58147 11.9943 0.996022 11.033 0.597732C10.0716 0.199442 9.0406 -0.00371848 8 5.15223e-05C6.6089 0.00141152 5.24248 0.368251 4.03771 1.06383C2.83294 1.75941 1.83208 2.75932 1.13534 3.96341C0.4386 5.16751 0.07046 6.53356 0.06776 7.92466C0.06507 9.31586 0.42793 10.6833 1.12 11.8901L0 16.0001L4.2 14.9001C5.35975 15.5453 6.6629 15.8892 7.99 15.9001C10.0997 15.9002 12.124 15.0669 13.6222 13.5817C15.1205 12.0966 15.9715 10.0797 15.99 7.97006C15.983 6.91736 15.7682 5.8764 15.3581 4.90686C14.948 3.93731 14.3505 3.05825 13.6 2.32005ZM8 14.5301C6.8177 14.5309 5.65701 14.2131 4.64 13.6101L4.4 13.4601L1.91 14.1201L2.57 11.6901L2.41 11.4401C1.55925 10.0668 1.24174 8.42906 1.51762 6.83726C1.7935 5.24551 2.64361 3.81021 3.9069 2.80328C5.1702 1.79634 6.7589 1.28771 8.3721 1.37374C9.9853 1.45976 11.511 2.13447 12.66 3.27005C13.916 4.49824 14.635 6.17356 14.66 7.93006C14.6442 9.68596 13.9355 11.3646 12.6882 12.6007C11.441 13.8367 9.756 14.5302 8 14.5301ZM11.61 9.59006C11.41 9.49006 10.44 9.01006 10.26 8.95006C10.08 8.89006 9.94 8.85006 9.81 9.05006C9.6144 9.31816 9.404 9.57516 9.18 9.82006C9.07 9.96006 8.95 9.97006 8.75 9.82006C7.6097 9.36946 6.6597 8.53946 6.06 7.47006C5.85 7.12006 6.26 7.14006 6.64 6.39006C6.6681 6.33596 6.6827 6.27596 6.6827 6.21506C6.6827 6.15416 6.6681 6.09416 6.64 6.04006C6.64 5.94005 6.19 4.96005 6.03 4.57005C5.87 4.18005 5.71 4.24005 5.58 4.23005H5.19C5.08895 4.2316 4.9894 4.25471 4.898 4.29782C4.8066 4.34093 4.72546 4.40306 4.66 4.48005C4.43562 4.69823 4.26061 4.96197 4.14676 5.25349C4.03291 5.54501 3.98287 5.85755 4 6.17006C4.0627 6.91816 4.34443 7.63116 4.81 8.22006C5.6622 9.49586 6.8301 10.5294 8.2 11.2201C8.9185 11.6395 9.7535 11.8149 10.58 11.7201C10.8552 11.6655 11.1159 11.5536 11.345 11.3916C11.5742 11.2297 11.7667 11.0213 11.91 10.7801C12.0428 10.4857 12.0846 10.1584 12.03 9.84006C11.94 9.74006 11.81 9.69006 11.61 9.59006Z" fill="white"/>
</svg>
