<svg width="75" height="75" viewBox="0 0 75 75" fill="none" xmlns="http://www.w3.org/2000/svg">
<g clip-path="url(#clip0_589_6)">
<path d="M23.4375 2.34375H37.5V14.3672C37.5 14.908 37.2852 15.4266 36.9028 15.809C36.5204 16.1914 36.0017 16.4062 35.4609 16.4062H25.4766C24.9358 16.4062 24.4171 16.1914 24.0347 15.809C23.6523 15.4266 23.4375 14.908 23.4375 14.3672V2.34375Z" fill="#ED1C24"/>
<path d="M35.1562 60.9375H7.03125C5.16645 60.9375 3.37802 60.1967 2.05941 58.8781C0.74079 57.5595 0 55.7711 0 53.9062L0 7.03125C0 5.16645 0.74079 3.37802 2.05941 2.05941C3.37802 0.74079 5.16645 0 7.03125 0L53.9062 0C55.7711 0 57.5595 0.74079 58.8781 2.05941C60.1967 3.37802 60.9375 5.16645 60.9375 7.03125V28.125C60.9375 28.7466 60.6906 29.3427 60.251 29.7823C59.8115 30.2218 59.2154 30.4688 58.5938 30.4688C57.9721 30.4688 57.376 30.2218 56.9365 29.7823C56.4969 29.3427 56.25 28.7466 56.25 28.125V7.03125C56.25 6.40965 56.0031 5.81351 55.5635 5.37397C55.124 4.93443 54.5279 4.6875 53.9062 4.6875H7.03125C6.40965 4.6875 5.81351 4.93443 5.37397 5.37397C4.93443 5.81351 4.6875 6.40965 4.6875 7.03125V53.9062C4.6875 54.5279 4.93443 55.124 5.37397 55.5635C5.81351 56.0031 6.40965 56.25 7.03125 56.25H35.1562C35.7779 56.25 36.374 56.4969 36.8135 56.9365C37.2531 57.376 37.5 57.9721 37.5 58.5938C37.5 59.2154 37.2531 59.8115 36.8135 60.251C36.374 60.6906 35.7779 60.9375 35.1562 60.9375Z" fill="#002F96"/>
<path d="M16.4062 51.5625H11.7188C11.0971 51.5625 10.501 51.3156 10.0615 50.876C9.62193 50.4365 9.375 49.8404 9.375 49.2188C9.375 48.5971 9.62193 48.001 10.0615 47.5615C10.501 47.1219 11.0971 46.875 11.7188 46.875H16.4062C17.0279 46.875 17.624 47.1219 18.0635 47.5615C18.5031 48.001 18.75 48.5971 18.75 49.2188C18.75 49.8404 18.5031 50.4365 18.0635 50.876C17.624 51.3156 17.0279 51.5625 16.4062 51.5625Z" fill="#002F96"/>
<path d="M58.5938 74.9997C58.3396 74.995 58.0872 74.9556 57.8438 74.8826C53.2841 73.3624 49.3183 70.446 46.5084 66.5466C43.6984 62.6472 42.1868 57.9624 42.1875 53.156V44.531C42.1888 44.0982 42.3099 43.6742 42.5375 43.306C42.765 42.9378 43.09 42.6398 43.4766 42.4451L57.5391 35.4138C57.8662 35.249 58.2274 35.1631 58.5938 35.1631C58.9601 35.1631 59.3213 35.249 59.6484 35.4138L73.7109 42.4451C74.0975 42.6398 74.4225 42.9378 74.65 43.306C74.8776 43.6742 74.9987 44.0982 75 44.531V53.156C75.0254 57.9824 73.5252 62.6934 70.7135 66.6163C67.9018 70.5392 63.9225 73.4733 59.3438 74.9997C59.0949 75.0335 58.8426 75.0335 58.5938 74.9997ZM46.875 45.9841V53.156C46.8748 56.8454 47.9951 60.448 50.0878 63.4865C52.1805 66.5251 55.1467 68.8563 58.5938 70.1716C62.0408 68.8563 65.007 66.5251 67.0997 63.4865C69.1924 60.448 70.3127 56.8454 70.3125 53.156V45.9841L58.5938 40.1247L46.875 45.9841Z" fill="#002F96"/>
<path d="M58.5938 64.5935C58.1078 64.5972 57.6328 64.4498 57.2344 64.1716C55.4796 62.9203 54.0493 61.2677 53.0627 59.3516C52.0761 57.4354 51.5617 55.3112 51.5625 53.156V50.32C51.5638 49.8872 51.6849 49.4632 51.9125 49.0951C52.14 48.7269 52.465 48.4289 52.8516 48.2341L57.5391 45.8904C57.8662 45.7255 58.2274 45.6396 58.5938 45.6396C58.9601 45.6396 59.3213 45.7255 59.6484 45.8904L64.3359 48.2341C64.7225 48.4289 65.0475 48.7269 65.275 49.0951C65.5026 49.4632 65.6237 49.8872 65.625 50.32V53.156C65.6258 55.3112 65.1114 57.4354 64.1248 59.3516C63.1382 61.2677 61.7079 62.9203 59.9531 64.1716C59.5547 64.4498 59.0797 64.5972 58.5938 64.5935Z" fill="#ED1C24"/>
</g>
<defs>
<clipPath id="clip0_589_6">
<rect width="75" height="75" fill="white"/>
</clipPath>
</defs>
</svg>
